<svg xmlns="http://www.w3.org/2000/svg" version="1.1" xmlns:xlink="http://www.w3.org/1999/xlink" xmlns:svgjs="http://svgjs.com/svgjs" width="100" height="100" viewBox="0 0 100 100"><g class="wrap" transform="matrix(1,0,0,1,0,0)"><defs class="background">
			<g id="background">
<path fill="url(#background-gradient)" stroke="none" d=" M 100 18.4 Q 100 10.8 94.6 5.4 89.05 0 81.6 0 L 18.4 0 Q 10.8 0 5.4 5.4 0 10.8 0 18.4 L 0 81.6 Q 0 89.05 5.4 94.6 10.8 100 18.4 100 L 81.6 100 Q 89.05 100 94.6 94.6 100 89.05 100 81.6 L 100 18.4 Z"></path>
</g><g id="middle-1">
<path fill="#000000" fill-opacity="0.4" stroke="none" d=" M 100 75.4 Q 99.8 82.4 94.6 87.75 89.2 93.15 81.6 93.15 L 18.4 93.15 Q 10.8 93.15 5.4 87.75 0.2 82.5 0 75.4 L 0 81.65 Q 0 89.2 5.4 94.6 10.8 100 18.4 100 L 81.6 100 Q 89.2 100 94.6 94.6 100 89.1 100 81.65 L 100 75.4 Z"></path>
</g><mask id="mask">
<path fill="#FFFFFF" stroke="none" d=" M 100 18.4 Q 100 10.8 94.6 5.4 89.05 0 81.6 0 L 18.4 0 Q 10.8 0 5.4 5.4 0 10.8 0 18.4 L 0 75.4 Q 0.2 82.5 5.4 87.75 10.8 93.15 18.4 93.15 L 81.6 93.15 Q 89.2 93.15 94.6 87.75 99.8 82.4 100 75.4 L 100 18.4 Z"></path>
</mask>
			
	<linearGradient id="background-gradient" x1="0" y1="0" y2="1" x2="0" gradientTransform="rotate(90 0.5 0.5)">
		<stop stop-color="#66b393" offset="0%"></stop>
		<stop stop-color="#76b59b" offset="100%"></stop>
	</linearGradient>

			
			
			
			
		<linearGradient class="shapgradient" gradientTransform="rotate(31 0.5 0.5)" id="SvgjsLinearGradient1064"><stop stop-color="#ffffff" offset="0"></stop><stop stop-color="#4fee8b" offset="0.89"></stop></linearGradient><filter width="200%" height="200%" x="-50%" y="-50%" id="SvgjsFilter1160"><feGaussianBlur id="SvgjsFeGaussianBlur1155" result="SvgjsFeGaussianBlur1155" in="SourceAlpha" stdDeviation="3 3"></feGaussianBlur><feOffset id="SvgjsFeOffset1156" result="SvgjsFeOffset1156" in="SvgjsFeGaussianBlur1155" dy="4.242640687119285" dx="4.242640687119286"></feOffset><feFlood id="SvgjsFeFlood1157" result="SvgjsFeFlood1157" in="SourceGraphic" flood-opacity="0.58" flood-color="#56565c"></feFlood><feComposite id="SvgjsFeComposite1158" result="SvgjsFeComposite1158" in="SvgjsFeFlood1157" operator="in" in2="SvgjsFeOffset1156"></feComposite><feBlend id="SvgjsFeBlend1159" result="SvgjsFeBlend1159" in="SourceGraphic"></feBlend></filter></defs><use xlink:href="#background" fill="url(#background-gradient)" class="background"></use><use xlink:href="#middle-1" class="background"></use><g class="geditable" mask="url(#mask)"><g mask="url(#mask)" fill="url(#SvgjsLinearGradient1064)" class="editable" transform="matrix(1,0,0,1,0,0)" filter="url(#SvgjsFilter1160)"><path d="M637.7437461273715 215.56394044028127C608.8837461273715 186.70394044028126 572.2337461273715 170.66394044028127 532.2337461273715 170.66394044028127C485.5337461273715 170.66394044028127 434.2537461273715 192.51394044028126 385.45374612737146 241.32394044028126L299.70374612737146 327.08394044028125C224.64374612737151 402.13394044028126 227.3337461273715 523.5839404402813 243.3337461273715 576.0339404402813L177.67374612737152 641.6939404402813C168.3037461273715 651.0639404402813 168.3037461273715 666.2639404402812 177.67374612737152 675.6339404402812C187.04374612737152 685.0039404402812 202.2437461273715 685.0039404402812 211.6137461273715 675.6339404402812L277.21374612737156 610.0339404402813C294.6537461273715 615.3339404402813 319.6437461273715 619.1839404402813 348.09374612737156 619.1839404402813C405.2837461273715 619.1839404402813 476.1337461273715 603.7039404402813 526.2237461273716 553.6139404402812L611.9837461273715 467.8639404402812C702.5937461273714 377.2439404402812 700.3037461273715 278.1139404402812 637.7437461273715 215.56394044028124ZM318.0137461273715 569.2339404402812L364.58374612737157 522.6639404402813H488.7037461273716C444.08374612737157 564.4939404402812 381.83374612737157 571.1239404402812 348.09374612737156 571.1239404402812C336.6837461273715 571.1339404402812 326.8037461273715 570.3139404402813 318.0137461273715 569.2339404402812ZM521.2237461273716 490.6639404402813H396.58374612737157L460.58374612737157 426.6639404402813H584.3937461273715C582.1637461273715 429.06394044028127 580.3837461273715 431.4939404402812 578.0037461273715 433.8739404402812L521.2237461273716 490.6639404402813ZM609.5337461273715 394.6639404402813H492.58374612737157L515.0937461273716 372.1539404402813C524.4637461273716 362.7839404402813 524.4637461273716 347.58394044028125 515.0937461273716 338.21394044028125C505.72374612737156 328.84394044028124 490.5237461273715 328.84394044028124 481.1537461273715 338.21394044028125L284.1537461273715 535.2139404402812C278.8837461273715 489.24394044028134 283.86374612737154 410.8739404402813 333.6737461273715 361.06394044028127C333.6737461273715 361.06394044028127 352.3837461273715 342.35394044028124 419.4237461273715 275.3039404402813C456.4437461273716 238.28394044028127 495.4537461273716 218.72394044028127 532.2237461273716 218.72394044028127C558.8537461273716 218.72394044028127 583.5937461273716 229.38394044028126 603.7537461273715 249.54394044028126C642.9237461273716 288.70394044028126 643.7737461273715 341.7939404402813 609.5337461273715 394.6639404402813Z " transform="matrix(0.11718858965754429,0,0,0.1171885896575443,0.002207079040730236,0)"></path></g></g></g></svg>